<?xml version="1.0" ?><!DOCTYPE svg  PUBLIC '-//W3C//DTD SVG 1.1//EN'  'http://www.w3.org/Graphics/SVG/1.1/DTD/svg11.dtd'><svg enable-background="new 0 0 500 500" height="500px" id="Layer_1" version="1.1" viewBox="0 0 500 500" width="500px" xml:space="preserve" xmlns="http://www.w3.org/2000/svg" xmlns:xlink="http://www.w3.org/1999/xlink"><g><path d="M160.252,307.44h71.656v21.745c-29.056,2.84-44.011,0.156-51.833,12.388h139.851    c-7.823-12.233-22.778-9.548-51.834-12.388V307.44h71.655c10.77,0,19.499-8.73,19.499-19.499V177.926    c0-10.771-8.729-19.499-19.499-19.499H160.252c-10.769,0-19.498,8.728-19.498,19.499v110.015    C140.754,298.709,149.484,307.44,160.252,307.44z M156.368,190.954c0-8.016,7.481-14.512,16.711-14.512H326.92    c9.232,0,16.713,6.496,16.713,14.512v83.957c0,8.014-7.481,14.513-16.713,14.513H173.079c-9.229,0-16.711-6.499-16.711-14.513    V190.954z"/></g></svg>